<svg xmlns="http://www.w3.org/2000/svg" width="355" height="261" viewBox="0 0 355 261" version="1.1"><path d="M 170.994 163.313 C 170.986 169.369, 169.365 174.309, 166.502 176.999 C 164.556 178.826, 164 180.343, 164 183.822 C 164 190.187, 160.437 199.184, 156.346 203.147 C 153.366 206.035, 152.223 206.490, 148.101 206.430 C 144.747 206.381, 142.317 205.650, 139.977 203.984 C 138.141 202.676, 136.965 202.135, 137.364 202.780 C 137.941 203.714, 138.823 221.254, 138.974 234.809 C 138.988 236.079, 139.418 236.860, 139.929 236.544 C 141.524 235.558, 141.597 240.429, 140.008 241.824 C 139.178 242.552, 139.063 242.863, 139.750 242.515 C 140.471 242.150, 141 242.506, 141 243.358 C 141 244.169, 140.438 245.060, 139.750 245.338 C 139.003 245.639, 139.205 245.874, 140.250 245.921 C 141.390 245.972, 142.040 245.216, 142.116 243.750 C 142.207 241.983, 142.332 241.886, 142.699 243.298 C 143.296 245.600, 141.394 247.905, 139.043 247.728 C 137.854 247.639, 137.411 247.053, 137.769 246.045 C 138.490 244.018, 137.565 244.933, 136.160 247.639 C 135.097 249.684, 135.202 249.744, 138.529 248.993 C 142.469 248.105, 143.329 248.840, 142.450 252.345 C 141.824 254.839, 143.358 256.848, 144.490 255.016 C 144.835 254.457, 145.568 254, 146.118 254 C 146.668 254, 146.780 254.563, 146.367 255.250 C 145.832 256.140, 146.092 256.115, 147.266 255.163 C 148.570 254.105, 148.663 253.542, 147.708 252.473 C 146.697 251.341, 146.312 251.365, 145.346 252.620 C 144.592 253.600, 143.965 253.753, 143.537 253.060 C 143.177 252.477, 143.385 252, 144 252 C 144.615 252, 144.869 251.597, 144.565 251.105 C 144.260 250.612, 144.684 249.952, 145.506 249.636 C 146.328 249.321, 147 249.525, 147 250.090 C 147 250.656, 147.520 250.797, 148.155 250.405 C 148.816 249.996, 149.040 250.127, 148.678 250.712 C 147.975 251.850, 150.490 254.335, 153.391 255.371 C 155.043 255.960, 155.112 255.840, 153.935 254.422 C 152.108 252.220, 151.710 249.514, 153.422 250.936 C 154.116 251.511, 155.023 251.649, 155.437 251.241 C 155.851 250.834, 156.035 251.400, 155.845 252.500 C 155.580 254.035, 156.023 254.472, 157.750 254.380 C 159.324 254.297, 160 254.822, 160 256.130 C 160 257.159, 160.388 258, 160.861 258 C 161.335 258, 161.505 256.859, 161.238 255.465 C 160.731 252.813, 163.527 248.590, 165.134 249.583 C 165.610 249.877, 166 249.641, 166 249.059 C 166 248.477, 166.488 248, 167.083 248 C 167.679 248, 167.968 248.563, 167.726 249.250 C 167.483 249.938, 166.621 250.450, 165.809 250.389 C 164.997 250.328, 164.333 250.872, 164.333 251.598 C 164.333 252.323, 165.046 252.865, 165.917 252.800 C 166.787 252.736, 168.400 252.761, 169.500 252.857 C 171.153 253, 171.242 253.194, 170.013 253.971 C 168.819 254.726, 168.932 254.881, 170.586 254.756 C 172.172 254.637, 172.580 254.014, 172.359 252.051 C 172.201 250.648, 172.314 250.287, 172.609 251.250 C 172.905 252.213, 173.550 253, 174.042 253 C 174.534 253, 174.641 252.227, 174.278 251.283 C 173.696 249.764, 173.800 249.735, 175.184 251.027 C 176.864 252.597, 176.486 255.419, 174.741 254.340 C 174.113 253.952, 173.990 254.174, 174.435 254.894 C 175.555 256.708, 178 254.297, 178 251.378 C 178 250.070, 178.477 249, 179.059 249 C 179.641 249, 179.840 249.450, 179.500 250 C 178.555 251.529, 180.281 251.192, 182.943 249.327 C 184.257 248.407, 185.006 248.182, 184.607 248.827 C 184.208 249.472, 184.385 250, 185 250 C 185.615 250, 185.864 250.412, 185.553 250.915 C 185.242 251.418, 185.553 252.057, 186.244 252.336 C 187.025 252.650, 186.860 252.872, 185.809 252.921 C 184.879 252.964, 183.852 252.570, 183.527 252.044 C 182.823 250.905, 180 251.803, 180 253.166 C 180 253.690, 180.470 253.828, 181.044 253.473 C 181.618 253.118, 183.177 253.541, 184.509 254.414 C 187.560 256.413, 188.375 256.419, 187.613 254.435 C 187.016 252.879, 187.974 252.946, 192.914 254.807 C 193.813 255.146, 194.065 254.914, 193.605 254.170 C 193.207 253.526, 193.385 253, 194 253 C 194.615 253, 194.797 252.480, 194.405 251.845 C 193.983 251.163, 194.128 250.961, 194.760 251.352 C 195.348 251.715, 196.019 251.447, 196.252 250.756 C 196.576 249.793, 197.004 249.772, 198.087 250.665 C 198.864 251.306, 199.950 251.913, 200.500 252.015 C 201.050 252.117, 201.353 252.708, 201.174 253.328 C 200.995 253.948, 202.007 253.205, 203.424 251.677 C 206.199 248.683, 206.759 247.408, 204.750 248.662 C 202.661 249.966, 200.142 250.038, 199.386 248.816 C 198.905 248.036, 199.235 247.876, 200.401 248.324 C 201.765 248.847, 202.003 248.584, 201.525 247.078 C 201.191 246.028, 201.456 244.836, 202.114 244.430 C 202.903 243.942, 203.046 244.117, 202.534 244.945 C 201.929 245.923, 202.213 245.956, 203.824 245.094 C 204.959 244.487, 206.225 243.429, 206.636 242.745 C 207.206 241.797, 207.040 241.766, 205.942 242.614 C 202.476 245.290, 198.492 242.365, 201.503 239.354 C 202.326 238.531, 203 237.016, 203 235.988 C 203 234.959, 203.453 233.838, 204.008 233.495 C 204.645 233.101, 204.520 232.377, 203.668 231.525 C 202.653 230.510, 202.356 226.759, 202.463 216.313 C 202.541 208.687, 202.989 201.827, 203.457 201.069 C 204.025 200.150, 203.936 199.922, 203.189 200.383 C 202.387 200.879, 202.213 199.284, 202.576 194.788 C 203.136 187.854, 201.713 184.997, 196.944 183.481 C 194.627 182.745, 194.604 182.663, 196.500 181.922 C 198.376 181.189, 198.358 181.136, 196.205 181.070 C 194.131 181.007, 193.973 180.662, 194.566 177.500 C 195.393 173.093, 194.370 172.916, 193.119 177.250 L 192.180 180.500 191.972 176.500 C 191.857 174.300, 191.816 172.162, 191.882 171.750 C 191.947 171.338, 190.945 171, 189.655 171 C 187.336 171, 184 168.262, 184 166.358 C 184 164.309, 178.350 160.237, 174.750 159.693 L 171 159.126 170.994 163.313 M 196.467 245.053 C 196.223 245.449, 196.917 246.007, 198.011 246.293 C 199.206 246.605, 200 246.318, 200 245.573 C 200 244.253, 197.215 243.843, 196.467 245.053 M 203.459 247.067 C 202.399 248.782, 203.348 248.950, 205.443 247.418 C 207.065 246.232, 207.115 246, 205.750 246 C 204.852 246, 203.821 246.480, 203.459 247.067 M 169.200 249.200 C 167.605 250.795, 167.685 251.667, 169.425 251.667 C 170.209 251.667, 170.788 250.842, 170.712 249.833 C 170.549 247.659, 170.684 247.716, 169.200 249.200 M 159.980 250.524 C 159.284 251.362, 158.968 252.301, 159.276 252.610 C 159.585 252.919, 160.340 252.233, 160.954 251.086 C 162.264 248.638, 161.778 248.358, 159.980 250.524 M 188.750 249.689 C 186.671 250.233, 186.398 252, 188.393 252 C 189.159 252, 190.045 251.325, 190.362 250.500 C 190.678 249.675, 190.839 249.052, 190.719 249.116 C 190.598 249.180, 189.713 249.438, 188.750 249.689 M 139.469 251.050 C 138.519 252.588, 139.820 253.580, 141.104 252.296 C 141.822 251.578, 141.839 251.019, 141.156 250.597 C 140.596 250.251, 139.837 250.455, 139.469 251.050 M 195.507 253.989 C 195.157 254.555, 195.558 254.723, 196.448 254.382 C 197.505 253.976, 198.005 254.378, 198.015 255.643 C 198.028 257.160, 198.199 257.234, 198.949 256.048 C 199.455 255.249, 199.646 254.237, 199.375 253.798 C 198.685 252.681, 196.240 252.802, 195.507 253.989" stroke="none" fill="#6a383a" fill-rule="evenodd"/><path d="M 150 3.070 C 148.625 3.541, 146.271 4.174, 144.768 4.478 C 143.266 4.781, 140.453 6.419, 138.518 8.118 C 135.791 10.513, 135 11.971, 135 14.604 C 135 17.879, 134.862 18, 131.140 18 C 128.736 18, 125.972 18.887, 123.816 20.350 C 121.550 21.888, 116.921 23.313, 110.426 24.472 C 99.785 26.372, 96.584 27.593, 93.603 30.886 C 91.934 32.730, 91.792 33.952, 92.398 41.220 C 92.890 47.115, 93.610 50.037, 94.928 51.481 C 97.147 53.913, 98.536 58, 97.144 58 C 94.991 58, 90 63.261, 90 65.530 C 90 66.824, 89.489 68.198, 88.863 68.584 C 88.076 69.071, 87.924 71.851, 88.369 77.643 L 89.012 86 84.654 86 C 81.606 86, 79.274 86.742, 76.898 88.467 C 75.029 89.824, 72.375 91.707, 71 92.651 C 66.085 96.028, 64 98.382, 64 100.552 C 64 101.764, 63.325 103.315, 62.500 104 C 61.521 104.813, 61 107.039, 61 110.416 C 61 115.325, 61.253 115.825, 66 120.306 C 68.750 122.901, 71 125.662, 71 126.440 C 71 127.218, 72.418 128.965, 74.151 130.321 L 77.302 132.787 77.512 144.096 L 77.722 155.404 81.111 158.245 C 83.427 160.186, 85.392 160.994, 87.317 160.796 L 90.135 160.507 90.448 170.334 C 90.623 175.820, 91.256 180.656, 91.881 181.281 C 92.496 181.896, 93 183.412, 93 184.649 C 93 186.037, 94.318 187.903, 96.441 189.523 C 99.172 191.606, 101.117 192.184, 105.870 192.324 C 111.275 192.483, 112.165 192.208, 115.010 189.500 C 116.743 187.850, 119.535 184.387, 121.214 181.804 C 124.227 177.169, 124.297 177.130, 126.602 178.804 C 128.417 180.122, 128.944 181.465, 128.969 184.832 C 128.994 188.275, 129.718 190.039, 132.500 193.435 C 134.425 195.784, 136 198.424, 136 199.302 C 136 200.180, 137.610 202.126, 139.579 203.628 C 142.290 205.696, 144.336 206.375, 148.022 206.429 C 152.234 206.490, 153.350 206.051, 156.346 203.147 C 160.437 199.184, 164 190.187, 164 183.822 C 164 180.343, 164.556 178.826, 166.502 176.999 C 169.365 174.309, 170.986 169.369, 170.994 163.313 L 171 159.126 174.750 159.693 C 178.488 160.258, 184 164.333, 184 166.532 C 184 168.360, 187.444 171, 189.829 171 C 191.023 171, 191.947 171.338, 191.882 171.750 C 191.816 172.162, 191.857 174.300, 191.972 176.500 L 192.180 180.500 193.119 177.250 C 194.370 172.916, 195.393 173.093, 194.566 177.500 C 193.973 180.662, 194.131 181.007, 196.205 181.070 C 198.358 181.136, 198.376 181.189, 196.500 181.922 C 194.539 182.689, 194.542 182.717, 196.647 183.387 C 197.828 183.762, 200.499 185.678, 202.584 187.644 C 206.083 190.944, 206.747 191.183, 211.220 190.753 C 214.307 190.456, 216.893 189.510, 218.347 188.144 C 219.602 186.965, 221.110 186, 221.698 186 C 222.286 186, 224.395 184.199, 226.384 181.997 C 229.383 178.678, 230 177.244, 230 173.601 C 230 169.892, 230.509 168.760, 233.264 166.342 C 235.059 164.766, 238.452 162.841, 240.804 162.065 C 247.830 159.746, 257.020 147.417, 256.975 140.370 C 256.946 135.873, 251.453 127.503, 247.559 126.022 C 246.258 125.528, 244.899 124.646, 244.538 124.062 C 244.177 123.478, 243.009 123, 241.941 123 C 239.581 123, 239.547 122.620, 241.627 119.446 C 242.943 117.437, 243.119 115.587, 242.546 109.773 C 241.912 103.333, 241.420 102.085, 237.826 97.792 C 235.619 95.156, 233.119 93, 232.270 93 C 231.294 93, 232.433 91.176, 235.363 88.043 C 240.563 82.484, 240.603 82.257, 238.808 68.773 C 237.636 59.968, 237.544 59.761, 233.331 56.308 L 229.047 52.797 220.074 53.149 C 209.336 53.569, 208.516 53.064, 209.935 46.909 C 211.244 41.229, 211.275 35.288, 210 34.500 C 209.450 34.160, 209 32.178, 209 30.096 C 209 27.580, 208.329 25.703, 207 24.500 C 205.900 23.505, 205 21.944, 205 21.032 C 205 20.120, 203.650 18.081, 202 16.500 C 200.350 14.919, 199 13.113, 199 12.487 C 199 11.861, 197.906 10.321, 196.568 9.064 C 194.287 6.921, 193.622 6.825, 185.818 7.504 C 181.243 7.902, 176.600 8.683, 175.500 9.239 C 171.235 11.395, 169.001 14.328, 168.884 17.924 C 168.819 19.927, 168.569 20.620, 168.316 19.500 C 168.067 18.400, 167.220 16.082, 166.432 14.349 C 165.644 12.616, 165 10.107, 165 8.773 C 165 5.027, 161.087 1.981, 156.436 2.106 C 154.271 2.165, 151.375 2.598, 150 3.070" stroke="none" fill="#bcbc8c" fill-rule="evenodd"/></svg>